<svg width="37" height="37" viewBox="0 0 37 37" fill="none" xmlns="http://www.w3.org/2000/svg">
<path d="M3.08325 33.9165H33.9166" stroke="#292D32" stroke-width="2" stroke-miterlimit="10" stroke-linecap="round" stroke-linejoin="round"/>
<path d="M4.625 15.3703C4.625 14.4299 5.07208 13.5358 5.81208 12.95L16.6038 4.54789C17.7138 3.68456 19.2708 3.68456 20.3962 4.54789L31.1879 12.9346C31.9433 13.5204 32.375 14.4145 32.375 15.3703V33.9166" stroke="#292D32" stroke-width="2" stroke-miterlimit="10" stroke-linecap="round" stroke-linejoin="round"/>
<path d="M4.54785 33.9164L4.5941 21.6294" stroke="#292D32" stroke-width="2" stroke-miterlimit="10" stroke-linecap="round" stroke-linejoin="round"/>
<path d="M20.0416 26.2085H16.9583C15.6787 26.2085 14.6458 27.2414 14.6458 28.521V33.9168H22.3541V28.521C22.3541 27.2414 21.3212 26.2085 20.0416 26.2085Z" stroke="#292D32" stroke-width="2" stroke-miterlimit="10" stroke-linejoin="round"/>
<path d="M14.6458 21.1981H11.5624C10.7145 21.1981 10.0208 20.5043 10.0208 19.6564V17.3439C10.0208 16.496 10.7145 15.8022 11.5624 15.8022H14.6458C15.4937 15.8022 16.1874 16.496 16.1874 17.3439V19.6564C16.1874 20.5043 15.4937 21.1981 14.6458 21.1981Z" stroke="#292D32" stroke-width="2" stroke-miterlimit="10" stroke-linejoin="round"/>
<path d="M25.4375 21.1981H22.3542C21.5062 21.1981 20.8125 20.5043 20.8125 19.6564V17.3439C20.8125 16.496 21.5062 15.8022 22.3542 15.8022H25.4375C26.2854 15.8022 26.9792 16.496 26.9792 17.3439V19.6564C26.9792 20.5043 26.2854 21.1981 25.4375 21.1981Z" stroke="#292D32" stroke-width="2" stroke-miterlimit="10" stroke-linejoin="round"/>
<path d="M29.2917 10.7915L29.2455 6.1665H22.4622" stroke="#292D32" stroke-width="2" stroke-miterlimit="10" stroke-linecap="round" stroke-linejoin="round"/>
</svg>
