<svg width="37" height="37" viewBox="0 0 37 37" fill="none" xmlns="http://www.w3.org/2000/svg">
<path opacity="0.4" d="M18.7467 16.7581C18.5925 16.7427 18.4075 16.7427 18.2379 16.7581C14.5688 16.6347 11.655 13.6285 11.655 9.9285C11.655 6.15141 14.7075 3.0835 18.5 3.0835C22.2771 3.0835 25.345 6.15141 25.345 9.9285C25.3296 13.6285 22.4159 16.6347 18.7467 16.7581Z" stroke="#292D32" stroke-width="2.5" stroke-linecap="round" stroke-linejoin="round"/>
<path d="M11.0384 22.4465C7.30753 24.944 7.30753 29.014 11.0384 31.4961C15.2779 34.3328 22.2309 34.3328 26.4704 31.4961C30.2013 28.9986 30.2013 24.9286 26.4704 22.4465C22.2463 19.6253 15.2934 19.6253 11.0384 22.4465Z" stroke="#292D32" stroke-width="2.5" stroke-linecap="round" stroke-linejoin="round"/>
</svg>
