<svg width="27" height="38" viewBox="0 0 27 38" fill="none" xmlns="http://www.w3.org/2000/svg">
<g clip-path="url(#clip0_10570_4437)">
<path d="M17.4708 8.04199H9.50359C9.00354 8.04199 8.59802 8.44751 8.59802 8.94756V12.0882H18.3764V8.94756C18.3764 8.44751 17.9709 8.04199 17.4708 8.04199ZM17.4491 11.5825H9.52531V9.55054C9.52531 9.18298 9.82333 8.88496 10.1909 8.88496H16.7835C17.1511 8.88496 17.4491 9.18298 17.4491 9.55054V11.5825Z" fill="url(#paint0_linear_10570_4437)"/>
<path d="M13.4874 37.4619C20.9362 37.4619 26.9747 31.4234 26.9747 23.9746C26.9747 16.5258 20.9362 10.4873 13.4874 10.4873C6.03859 10.4873 0.00012207 16.5258 0.00012207 23.9746C0.00012207 31.4234 6.03859 37.4619 13.4874 37.4619Z" fill="url(#paint1_linear_10570_4437)"/>
<path d="M13.4872 36.9563C20.6567 36.9563 26.4688 31.1443 26.4688 23.9748C26.4688 16.8052 20.6567 10.9932 13.4872 10.9932C6.31767 10.9932 0.505615 16.8052 0.505615 23.9748C0.505615 31.1443 6.31767 36.9563 13.4872 36.9563Z" fill="url(#paint2_linear_10570_4437)"/>
<path d="M13.4872 36.9563C20.6567 36.9563 26.4688 31.1443 26.4688 23.9748C26.4688 16.8052 20.6567 10.9932 13.4872 10.9932C6.31767 10.9932 0.505615 16.8052 0.505615 23.9748C0.505615 31.1443 6.31767 36.9563 13.4872 36.9563Z" fill="url(#paint3_linear_10570_4437)"/>
<path d="M13.4875 33.1624C18.5619 33.1624 22.6756 29.0488 22.6756 23.9743C22.6756 18.8998 18.5619 14.7861 13.4875 14.7861C8.41299 14.7861 4.29932 18.8998 4.29932 23.9743C4.29932 29.0488 8.41299 33.1624 13.4875 33.1624Z" fill="url(#paint4_radial_10570_4437)"/>
<path d="M13.4873 31.8137C17.8169 31.8137 21.3268 28.3039 21.3268 23.9742C21.3268 19.6446 17.8169 16.1348 13.4873 16.1348C9.15768 16.1348 5.64783 19.6446 5.64783 23.9742C5.64783 28.3039 9.15768 31.8137 13.4873 31.8137Z" fill="url(#paint5_linear_10570_4437)"/>
<path d="M16.2692 0.961914H10.7057V8.8857H16.2692V0.961914Z" fill="#F8F3EA"/>
<path d="M12.5603 0.961914H10.7057V8.8857H12.5603V0.961914Z" fill="#F82C23"/>
<path d="M16.2692 0.961914H14.4147V8.8857H16.2692V0.961914Z" fill="#2671F7"/>
<path d="M10.4202 27.2388L11.3692 25.942C11.8895 26.4396 12.4915 26.7751 13.1626 26.7751C13.9618 26.7751 14.4821 26.4396 14.4821 25.7921C14.4821 25.0514 14.0891 24.6112 12.2833 24.6112V23.1645C13.7535 23.1645 14.2163 22.713 14.2163 22.0297C14.2163 21.4397 13.8696 21.1156 13.2325 21.1156C12.6538 21.1156 12.2138 21.3813 11.6935 21.8328L10.6512 20.5717C11.4504 19.8998 12.307 19.5068 13.325 19.5068C15.108 19.5068 16.2768 20.3399 16.2768 21.879C16.2768 22.7356 15.814 23.4076 14.8876 23.7781V23.8356C15.8488 24.1248 16.5547 24.8194 16.5547 25.9307C16.5547 27.5394 15.0845 28.4422 13.3712 28.4422C12.0054 28.4422 11.045 27.9674 10.4202 27.2388Z" fill="#BC853B"/>
<path d="M13.4873 20.6867C17.0252 20.6867 20.0146 23.0307 20.9901 26.2502C21.2083 25.5297 21.3268 24.7659 21.3268 23.9742C21.3268 19.6446 17.8169 16.1348 13.4873 16.1348C9.15767 16.1348 5.64783 19.6446 5.64783 23.9742C5.64783 24.7659 5.76627 25.5297 5.98454 26.2502C6.96 23.0307 9.94935 20.6867 13.4873 20.6867Z" fill="url(#paint6_linear_10570_4437)"/>
</g>
<defs>
<linearGradient id="paint0_linear_10570_4437" x1="13.4872" y1="12.0882" x2="13.4872" y2="8.04201" gradientUnits="userSpaceOnUse">
<stop stop-color="#E39A33"/>
<stop offset="1" stop-color="#E7AC60"/>
</linearGradient>
<linearGradient id="paint1_linear_10570_4437" x1="13.4874" y1="37.4619" x2="13.4874" y2="10.4873" gradientUnits="userSpaceOnUse">
<stop stop-color="#E39A33"/>
<stop offset="1" stop-color="#E7AC60"/>
</linearGradient>
<linearGradient id="paint2_linear_10570_4437" x1="0.505688" y1="23.9748" x2="26.4687" y2="23.9748" gradientUnits="userSpaceOnUse">
<stop stop-color="#E7A44B"/>
<stop offset="0.5636" stop-color="#EBB370"/>
<stop offset="1" stop-color="#F0B265"/>
</linearGradient>
<linearGradient id="paint3_linear_10570_4437" x1="0.505688" y1="23.9748" x2="26.4687" y2="23.9748" gradientUnits="userSpaceOnUse">
<stop stop-color="#FFFDFC"/>
<stop offset="1" stop-color="#B4B5CC" stop-opacity="0"/>
</linearGradient>
<radialGradient id="paint4_radial_10570_4437" cx="0" cy="0" r="1" gradientUnits="userSpaceOnUse" gradientTransform="translate(13.4875 23.9743) scale(9.18822)">
<stop offset="0.9" stop-color="#F0B162"/>
<stop offset="1" stop-color="#C38829"/>
</radialGradient>
<linearGradient id="paint5_linear_10570_4437" x1="13.4873" y1="31.8137" x2="13.4873" y2="16.1347" gradientUnits="userSpaceOnUse">
<stop stop-color="#EEC08C"/>
<stop offset="1" stop-color="#EBB36E"/>
</linearGradient>
<linearGradient id="paint6_linear_10570_4437" x1="13.4873" y1="26.2502" x2="13.4873" y2="16.1347" gradientUnits="userSpaceOnUse">
<stop stop-color="#FFFDFC" stop-opacity="0"/>
<stop offset="1" stop-color="#FFFDFC"/>
</linearGradient>
<clipPath id="clip0_10570_4437">
<rect width="26.9746" height="36.5" fill="white" transform="translate(0 0.961914)"/>
</clipPath>
</defs>
</svg>
