<svg width="86" height="86" viewBox="0 0 86 86" fill="none" xmlns="http://www.w3.org/2000/svg">
<rect width="86" height="86" rx="43" fill="#EFF4FF"/>
<path opacity="0.4" d="M43.7467 40.7581C43.5925 40.7427 43.4075 40.7427 43.2379 40.7581C39.5688 40.6347 36.655 37.6285 36.655 33.9285C36.655 30.1514 39.7075 27.0835 43.5 27.0835C47.2771 27.0835 50.345 30.1514 50.345 33.9285C50.3296 37.6285 47.4159 40.6347 43.7467 40.7581Z" stroke="#292D32" stroke-width="2.5" stroke-linecap="round" stroke-linejoin="round"/>
<path d="M36.0384 46.4465C32.3075 48.944 32.3075 53.014 36.0384 55.4961C40.2779 58.3328 47.2309 58.3328 51.4704 55.4961C55.2013 52.9986 55.2013 48.9286 51.4704 46.4465C47.2463 43.6253 40.2934 43.6253 36.0384 46.4465Z" stroke="#292D32" stroke-width="2.5" stroke-linecap="round" stroke-linejoin="round"/>
</svg>
