<svg width="86" height="86" viewBox="0 0 86 86" fill="none" xmlns="http://www.w3.org/2000/svg">
<rect width="86" height="86" rx="43" fill="#FFF7E1"/>
<path d="M28.0833 57.9165H58.9166" stroke="#292D32" stroke-width="2" stroke-miterlimit="10" stroke-linecap="round" stroke-linejoin="round"/>
<path d="M29.625 39.3703C29.625 38.4299 30.0721 37.5358 30.8121 36.95L41.6038 28.5479C42.7138 27.6846 44.2708 27.6846 45.3962 28.5479L56.1879 36.9346C56.9433 37.5204 57.375 38.4145 57.375 39.3703V57.9166" stroke="#292D32" stroke-width="2" stroke-miterlimit="10" stroke-linecap="round" stroke-linejoin="round"/>
<path d="M29.5479 57.9164L29.5941 45.6294" stroke="#292D32" stroke-width="2" stroke-miterlimit="10" stroke-linecap="round" stroke-linejoin="round"/>
<path d="M45.0416 50.2085H41.9583C40.6787 50.2085 39.6458 51.2414 39.6458 52.521V57.9168H47.3541V52.521C47.3541 51.2414 46.3212 50.2085 45.0416 50.2085Z" stroke="#292D32" stroke-width="2" stroke-miterlimit="10" stroke-linejoin="round"/>
<path d="M39.6458 45.1981H36.5624C35.7145 45.1981 35.0208 44.5043 35.0208 43.6564V41.3439C35.0208 40.496 35.7145 39.8022 36.5624 39.8022H39.6458C40.4937 39.8022 41.1874 40.496 41.1874 41.3439V43.6564C41.1874 44.5043 40.4937 45.1981 39.6458 45.1981Z" stroke="#292D32" stroke-width="2" stroke-miterlimit="10" stroke-linejoin="round"/>
<path d="M50.4375 45.1981H47.3542C46.5062 45.1981 45.8125 44.5043 45.8125 43.6564V41.3439C45.8125 40.496 46.5062 39.8022 47.3542 39.8022H50.4375C51.2854 39.8022 51.9792 40.496 51.9792 41.3439V43.6564C51.9792 44.5043 51.2854 45.1981 50.4375 45.1981Z" stroke="#292D32" stroke-width="2" stroke-miterlimit="10" stroke-linejoin="round"/>
<path d="M54.2917 34.7915L54.2455 30.1665H47.4622" stroke="#292D32" stroke-width="2" stroke-miterlimit="10" stroke-linecap="round" stroke-linejoin="round"/>
</svg>
