<svg width="43" height="44" viewBox="0 0 43 44" fill="none" xmlns="http://www.w3.org/2000/svg">
<circle cx="21.5" cy="21.5" r="21.5" transform="matrix(-1 0 0 1 43 0.650391)" fill="#2A72FF"/>
<circle cx="21.5" cy="21.5" r="21.5" transform="matrix(-1 0 0 1 43 0.650391)" fill="white" fill-opacity="0.9"/>
<path d="M30.5926 21.9829C30.9094 22.2998 30.9094 22.8135 30.5926 23.1303L25.4293 28.2935C25.1125 28.6104 24.5988 28.6104 24.282 28.2935C23.9651 27.9767 23.9651 27.463 24.282 27.1462L28.8715 22.5566L24.282 17.9671C23.9651 17.6503 23.9651 17.1366 24.282 16.8197C24.5988 16.5029 25.1125 16.5029 25.4293 16.8197L30.5926 21.9829ZM12.1698 21.7453L30.0189 21.7453L30.0189 23.368L12.1698 23.368L12.1698 21.7453Z" fill="black" fill-opacity="0.87"/>
</svg>
