<svg width="22" height="20" viewBox="0 0 22 20" fill="none" xmlns="http://www.w3.org/2000/svg">
<path d="M10.2489 0.927053C10.5482 0.00574231 11.8517 0.00573993 12.151 0.927051L13.8941 6.29179C14.028 6.70382 14.4119 6.98278 14.8452 6.98278H20.486C21.4547 6.98278 21.8575 8.22239 21.0738 8.7918L16.5103 12.1074C16.1598 12.362 16.0131 12.8134 16.147 13.2254L17.8901 18.5902C18.1895 19.5115 17.135 20.2776 16.3513 19.7082L11.7877 16.3926C11.4373 16.138 10.9627 16.138 10.6122 16.3926L6.04864 19.7082C5.26493 20.2776 4.21045 19.5115 4.5098 18.5902L6.25291 13.2254C6.38678 12.8134 6.24013 12.362 5.88964 12.1074L1.32612 8.7918C0.542402 8.22239 0.945177 6.98278 1.9139 6.98278H7.55473C7.98795 6.98278 8.37191 6.70382 8.50578 6.2918L10.2489 0.927053Z" fill="#FFC130"/>
</svg>
